<svg xmlns="http://www.w3.org/2000/svg" version="1.1" xmlns:xlink="http://www.w3.org/1999/xlink" xmlns:svgjs="http://svgjs.dev/svgjs" width="1000" height="750" viewBox="0 0 1000 750"><rect width="1000" height="750" fill="#ff5858"></rect><g transform="matrix(0.834,0,0,0.834,82.49454818385726,115.4193570850203)"><svg viewBox="0 0 396 247" data-background-color="#ff5858" preserveAspectRatio="xMidYMid meet" height="623" width="1000" xmlns="http://www.w3.org/2000/svg" xmlns:xlink="http://www.w3.org/1999/xlink"><g id="tight-bounds" transform="matrix(1,0,0,1,0.2399987040677729,-0.09999999999999432)"><svg viewBox="0 0 395.52 247.2" height="247.2" width="395.52"><g><svg></svg></g><g><svg viewBox="0 0 395.52 247.2" height="247.2" width="395.52"><g><path xmlns="http://www.w3.org/2000/svg" d="M55.039 247.2l40.472-70.1 5.211 0-37.724 65.34h269.524l-37.724-65.34 5.211 0 40.472 70.1zM197.76 0l40.472 70.1-5.21 0-35.262-61.075-35.261 61.075-5.211 0z" fill="#ffffff" fill-rule="nonzero" stroke="none" stroke-width="1" stroke-linecap="butt" stroke-linejoin="miter" stroke-miterlimit="10" stroke-dasharray="" stroke-dashoffset="0" font-family="none" font-weight="none" font-size="none" text-anchor="none" style="mix-blend-mode: normal" data-fill-palette-color="tertiary"></path></g><g transform="matrix(1,0,0,1,2.842170943040401e-14,85.38550724637682)"><svg viewBox="0 0 395.5199999999999 76.42898550724637" height="76.42898550724637" width="395.5199999999999"><g><svg viewBox="0 0 395.5199999999999 76.42898550724637" height="76.42898550724637" width="395.5199999999999"><g><svg viewBox="0 0 395.5199999999999 76.42898550724637" height="76.42898550724637" width="395.5199999999999"><g><svg viewBox="0 0 395.5199999999999 76.42898550724637" height="76.42898550724637" width="395.5199999999999"><g><svg viewBox="0 0 395.5199999999999 76.42898550724637" height="76.42898550724637" width="395.5199999999999"><g><svg viewBox="0 0 395.5199999999999 76.42898550724637" height="76.42898550724637" width="395.5199999999999"><g transform="matrix(1,0,0,1,0,0)"><svg width="395.5199999999999" viewBox="1.5 -35.5 186.27999877929688 36" height="76.42898550724637" data-palette-color="#ffffff"><path d="M16.8-35.45Q20.45-35.45 23.23-34.43 26-33.4 26-31.65 26-29.9 24.68-27.33 23.35-24.75 22.45-24.75L22.45-24.75Q22.2-24.75 21.88-25.03 21.55-25.3 20.38-25.63 19.2-25.95 18.35-25.95L18.35-25.95Q15.45-25.95 13.68-23.9 11.9-21.85 11.9-17.63 11.9-13.4 13.73-11.35 15.55-9.3 18.35-9.3L18.35-9.3Q19.5-9.3 20.93-9.63 22.35-9.95 22.95-10.55L22.95-10.55Q23.05-10.65 23.35-10.65 23.65-10.65 24.48-9.53 25.3-8.4 26-6.58 26.7-4.75 26.7-3.75L26.7-3.75Q26.7-1.8 23.7-0.65 20.7 0.5 16.6 0.5L16.6 0.5Q10 0.5 5.75-4.15 1.5-8.8 1.5-17.28 1.5-25.75 5.88-30.6 10.25-35.45 16.8-35.45L16.8-35.45ZM38.65-16.55L38.65-0.35Q38.65 0.1 34.47 0.1 30.3 0.1 30.3-0.6L30.3-0.6 30.3-34.85Q30.3-35.2 31.85-35.35 33.4-35.5 34.45-35.5L34.45-35.5Q38.65-35.5 38.65-34.6L38.65-34.6 38.65-24.6Q41.45-25.45 42.9-25.45L42.9-25.45Q46.7-25.45 48.9-23.43 51.1-21.4 51.1-15.9L51.1-15.9 51.1-0.4Q51.1 0.05 47.2 0.05L47.2 0.05Q42.8-0.1 42.8-0.45L42.8-0.45 42.8-15.15Q42.8-17.6 41.2-17.6L41.2-17.6Q40.1-17.6 38.65-16.55L38.65-16.55ZM66.3-14L66.3-0.05Q66.3 0.3 61.74 0.3L61.74 0.3Q57.2 0.2 57.2-0.1L57.2-0.1 57.2-16.7 55.84-16.7Q55.05-16.7 54.57-17.68 54.09-18.65 54.09-20.1L54.09-20.1Q54.09-25.5 57.3-25.5L57.3-25.5Q59.55-25.5 61.05-24.13 62.55-22.75 62.55-21L62.55-21Q63.59-23.05 65.37-24.28 67.14-25.5 69-25.5L69-25.5Q71.89-25.5 72.5-24L72.5-24Q72.64-23.6 72.64-22.83 72.64-22.05 72.17-20.05 71.69-18.05 71.19-17.15 70.69-16.25 70.59-16.25 70.5-16.25 69.67-16.63 68.84-17 68.19-17L68.19-17Q66.3-17 66.3-14L66.3-14ZM84.29-24.85L84.29-0.3Q84.29 0.1 79.72 0.1 75.14 0.1 75.14-0.25L75.14-0.25 75.14-24.8Q75.14-25.15 79.72-25.15 84.29-25.15 84.29-24.85L84.29-24.85ZM84.29-35.15L84.29-27.8Q84.29-27.45 79.72-27.45 75.14-27.45 75.14-27.75L75.14-27.75 75.14-34.95Q75.14-35.45 79.72-35.45 84.29-35.45 84.29-35.15L84.29-35.15ZM89.84-9L89.84-9Q93.89-6.55 96.24-6.55L96.24-6.55Q97.74-6.55 97.74-7.6L97.74-7.6Q97.74-8.35 95.14-9.55L95.14-9.55Q88.89-12.1 88.89-17.9L88.89-17.9Q88.89-21.6 91.59-23.55 94.29-25.5 98.07-25.5 101.84-25.5 104.47-24.7 107.09-23.9 107.09-22.6L107.09-22.6Q107.09-21.5 106.02-19.7 104.94-17.9 104.54-17.75L104.54-17.75Q102.39-18.95 99.89-18.95L99.89-18.95Q98.54-18.95 98.54-18L98.54-18Q98.54-17.4 99.07-16.98 99.59-16.55 100.99-15.93 102.39-15.3 103.32-14.8 104.24-14.3 105.39-13.4L105.39-13.4Q107.79-11.5 107.79-8.45L107.79-8.45Q107.79-4.45 105.14-1.98 102.49 0.5 97.14 0.5L97.14 0.5Q93.59 0.5 90.69-0.7 87.79-1.9 87.79-4L87.79-4Q87.79-5.4 88.47-6.95 89.14-8.5 89.84-9ZM120.44-2.95L120.44-2.95 120.44-34.05Q120.44-35.1 125.51-35.1 130.59-35.1 130.59-34.05L130.59-34.05 130.59-9.55 138.29-9.55Q139.19-9.55 139.54-7.2L139.54-7.2Q139.69-6.05 139.69-4.85 139.69-3.65 139.54-2.4L139.54-2.4Q139.14 0 138.24 0L138.24 0 122.84 0Q121.74 0 121.09-0.9 120.44-1.8 120.44-2.95ZM161.33-1.35L161.33-1.35Q158.18 0.5 153.23 0.5 148.28 0.5 144.88-2.88 141.48-6.25 141.48-12.23 141.48-18.2 144.76-21.85 148.03-25.5 153.03-25.5 158.03-25.5 160.76-22.95 163.48-20.4 163.48-16.75L163.48-16.75Q163.48-8.65 154.18-8.65L154.18-8.65 150.73-8.65Q150.73-7.15 151.56-6.58 152.38-6 153.98-6L153.98-6Q157.48-6 160.63-7.6L160.63-7.6Q160.68-7.65 161.08-6.9L161.08-6.9Q162.28-4.75 162.28-3.28 162.28-1.8 161.33-1.35ZM155.08-15.8L155.08-15.8Q155.08-17.9 153.03-17.9L153.03-17.9Q152.08-17.9 151.41-17.32 150.73-16.75 150.73-15.65L150.73-15.65 150.73-14.1 153.43-14.1Q155.08-14.1 155.08-15.8ZM185.63-1.35L185.63-1.35Q182.48 0.5 177.53 0.5 172.58 0.5 169.18-2.88 165.78-6.25 165.78-12.23 165.78-18.2 169.06-21.85 172.33-25.5 177.33-25.5 182.33-25.5 185.06-22.95 187.78-20.4 187.78-16.75L187.78-16.75Q187.78-8.65 178.48-8.65L178.48-8.65 175.03-8.65Q175.03-7.15 175.86-6.58 176.68-6 178.28-6L178.28-6Q181.78-6 184.93-7.6L184.93-7.6Q184.98-7.65 185.38-6.9L185.38-6.9Q186.58-4.75 186.58-3.28 186.58-1.8 185.63-1.35ZM179.38-15.8L179.38-15.8Q179.38-17.9 177.33-17.9L177.33-17.9Q176.38-17.9 175.71-17.32 175.03-16.75 175.03-15.65L175.03-15.65 175.03-14.1 177.73-14.1Q179.38-14.1 179.38-15.8Z" opacity="1" transform="matrix(1,0,0,1,0,0)" fill="#ffffff" class="undefined-text-0" data-fill-palette-color="primary" id="text-0"></path></svg></g></svg></g></svg></g></svg></g><g></g></svg></g></svg></g></svg></g></svg></g><defs></defs></svg><rect width="395.52" height="247.2" fill="none" stroke="none" visibility="hidden"></rect></g></svg></g></svg>